PathFileType	4	(X/Y/Z)	C:\Users\WrightLab\Desktop\Jo\P4V119.trc
DataRate	CameraRate	NumFrames	NumMarkers	Units	OrigDataRate	OrigDataStartFrame	OrigNumFrames
100.00	100.00	       12	19	mm	100.00	610	       697
Frame#	Time	Headset_Front			Headset_Back			Headset_Left			Headset_Right			Left_Shoulder			Right_Shoulder			Sternum			C7			Left Elbow			Right Elbow			Left Wrist			Right Wrist			Left ASIS			Right ASIS			S2			Left Knee			Right Knee			Left Ankle			Right Ankle			
		X1	Y1	Z1	X2	Y2	Z2	X3	Y3	Z3	X4	Y4	Z4	X5	Y5	Z5	X6	Y6	Z6	X7	Y7	Z7	X8	Y8	Z8	X9	Y9	Z9	X10	Y10	Z10	X11	Y11	Z11	X12	Y12	Z12	X13	Y13	Z13	X14	Y14	Z14	X15	Y15	Z15	X16	Y16	Z16	X17	Y17	Z17	X18	Y18	Z18	X19	Y19	Z19	

610	6.090	-158.69344	1747.18372	2345.50293	-224.81528	1772.62329	2214.97363							48.48998	1577.31189	2212.03174	8.71546	1771.03931	2221.15869	-126.42728	1520.00208	2252.92090							-236.05516	1577.89026	2087.15503	-102.29675	1097.22644	2545.64893	-373.14133	1227.63025	2070.71582	-417.99118	974.43420	2235.65796	-299.56219	1085.87634	2189.45801				15.88053	596.84894	2281.75098	-280.97330	597.82794	2191.33423	27.65757	105.17316	2166.15820	-174.27490	99.95198	2150.23242	
611	6.100	-161.16920	1747.49097	2346.37354	-226.36618	1773.09143	2214.52466							46.20510	1576.89331	2212.33130	6.34810	1771.04858	2221.56348	-128.39444	1519.96826	2253.43774				104.81711	1245.20654	2369.93359	-238.07426	1577.67554	2088.14673	-101.44778	1091.18323	2543.28662	-374.82349	1227.58728	2072.08081	-418.21558	974.71271	2239.85938	-301.63293	1086.46838	2190.62231				13.15691	596.64471	2284.11279	-281.41687	598.01965	2191.36475	27.61658	105.21603	2166.20850	-174.31812	99.88670	2150.29272	
612	6.110	-163.35683	1747.11523	2346.12646	-228.88443	1773.40479	2214.95825							43.61467	1577.25464	2212.79248				-130.73894	1520.40723	2254.22314				103.36256	1243.43018	2367.81860	-241.21017	1577.69006	2088.90479	-100.76659	1084.57715	2539.91455	-377.67007	1227.14673	2074.26587	-419.23251	975.79211	2244.27441	-303.88553	1085.67126	2191.70947				11.47009	596.24994	2285.58643	-282.07272	598.25067	2191.58716	27.59465	105.23786	2166.23486	-174.51189	99.74438	2150.55884	
613	6.120	-165.59679	1747.31702	2346.97754	-231.57402	1773.31323	2215.86206							41.72424	1577.58325	2213.53320	2.06691	1769.85754	2221.69019	-132.86465	1520.55579	2254.44751				101.01699	1243.07544	2367.21143	-243.57327	1577.88464	2089.83252	-99.83469	1076.96216	2537.17578	-379.48761	1226.87439	2077.39380	-420.12338	976.36078	2248.30591	-306.58923	1086.80811	2193.62549				9.80593	596.69556	2288.58301	-282.88336	598.15991	2191.54102	27.29608	105.62804	2165.93750	-174.56255	99.59851	2150.63184	
614	6.130	-167.86319	1746.93433	2346.79590	-234.10704	1773.87830	2216.49097							39.20440	1577.81116	2213.79272	-0.71370	1769.92944	2221.70142	-135.46550	1520.76758	2255.07349				99.47401	1241.95569	2365.39429	-245.65540	1577.55945	2090.55273	-98.56454	1070.04736	2534.69922	-381.45374	1226.27295	2079.26440	-420.65784	977.37103	2252.23950	-309.05972	1087.47180	2195.53760				7.63473	597.47327	2290.71289	-283.58081	598.11853	2191.29932	27.57457	105.25397	2166.25659	-174.68343	99.42715	2150.80054	
615	6.140	-170.12213	1746.64172	2347.07715	-235.91769	1772.64941	2215.61572							36.79768	1578.03259	2214.20947	-3.03218	1769.80396	2222.18555	-138.22179	1521.45923	2256.49097				97.11900	1240.92236	2364.81714	-247.98567	1576.76880	2089.52588	-95.96701	1062.05945	2531.25513	-383.86874	1226.07678	2081.11450	-421.45874	977.92993	2256.28271	-310.97952	1087.32617	2196.75464				5.68264	596.85815	2292.86182	-284.14209	597.81738	2190.60596	27.21640	105.65573	2166.00366				
616	6.150	-172.88382	1747.04199	2347.68823	-238.41632	1772.81287	2216.20679							34.48196	1578.19653	2215.76953	-5.50242	1769.75525	2221.84399	-140.74133	1521.10986	2256.83887							-249.94064	1576.60779	2091.29443	-93.79747	1054.07104	2528.31665	-385.43500	1225.84888	2082.65845	-422.71149	978.93567	2260.11157	-313.23416	1086.33752	2197.89209				4.46676	596.12335	2294.61230	-284.74905	597.48956	2189.90210	27.14307	105.77903	2165.97583				
617	6.160	-175.34114	1746.70422	2347.68262	-241.24451	1772.78137	2216.68042							31.75954	1578.10413	2216.84155	-7.91808	1769.77307	2222.01660	-143.03632	1520.87512	2258.05029				92.95176	1239.14685	2363.85278	-252.98997	1576.60095	2091.59863	-91.06299	1045.64331	2524.24048	-388.12488	1224.94812	2084.41089	-423.66061	979.24023	2263.81323	-315.81299	1087.06189	2199.40063				3.16403	596.98492	2297.02393	-285.44272	597.25677	2189.54297	27.11572	105.92536	2165.75635				
618	6.170	-177.39505	1746.50854	2347.98926	-243.78073	1772.44995	2217.12524							28.99122	1577.92041	2217.88379	-10.24978	1769.07898	2222.15820	-145.55635	1520.71814	2258.09863				91.42110	1237.90210	2362.36719	-254.39624	1575.46460	2091.07373	-87.77739	1036.90906	2520.73413	-389.65387	1224.57849	2085.64575	-424.62997	980.54346	2267.39575	-318.00540	1086.47266	2201.63330				1.49593	596.92365	2298.59888	-285.98334	596.97070	2189.13867	27.10863	105.88715	2165.73926				
619	6.180	-179.84059	1746.43542	2347.36426	-245.72762	1771.82751	2216.31421							26.42963	1578.41956	2219.47803	-12.85941	1768.94067	2222.17114	-147.90984	1520.37085	2258.75293				89.14243	1237.04272	2362.34570	-256.78186	1575.40271	2092.76953	-84.09793	1028.41187	2516.50903	-391.62042	1223.86426	2087.41138	-425.18484	981.28839	2270.10718	-320.40488	1086.62781	2203.29810				-1.08838	596.62555	2300.03564	-286.59641	596.54364	2188.84766	27.19634	106.11526	2165.51318				
620	6.190	-182.17656	1746.50403	2348.50391	-248.10466	1771.48438	2216.58667							24.33413	1578.04041	2220.61768	-15.30163	1769.18054	2222.56763	-150.54738	1520.12976	2259.65039				87.05018	1236.67761	2363.37427	-258.99722	1574.45508	2091.81348	-80.37389	1019.68219	2512.89600	-393.97372	1222.64001	2088.78076	-426.49957	981.89410	2273.72119	-323.03937	1086.50720	2204.41577				-3.04639	596.20410	2299.85864	-287.02322	596.46747	2188.35327	27.12679	106.14616	2165.57471				
621	6.200	-184.84528	1746.38379	2348.34253	-250.94981	1771.18164	2217.32471							21.91901	1577.65894	2221.25903	-17.91900	1768.76160	2222.63745	-153.20633	1520.19116	2260.78198				85.65664	1235.45935	2363.05713	-260.88852	1573.74805	2092.58228	-76.09218	1011.44629	2508.30225	-395.26486	1221.78345	2088.31982	-427.57520	982.57739	2276.35107	-325.27283	1085.79224	2206.28442				-3.87476	596.18066	2300.33081	-288.08768	596.29138	2187.73340	27.17231	106.13274	2165.53833				
